<svg width="171" height="33" viewBox="0 0 171 33" fill="none" xmlns="http://www.w3.org/2000/svg">
<g clip-path="url(#clip0)">
<path d="M51.8998 7.99999C51.8998 6.79999 51.8998 5.69999 51.7998 4.69999H53.6998L53.7998 6.69999C54.3998 5.59999 55.7998 4.39999 57.7998 4.39999C59.4998 4.39999 62.0998 5.39999 62.0998 9.49999V16.7H59.9998V9.79999C59.9998 7.89999 59.2998 6.19999 57.1998 6.19999C55.7998 6.19999 54.5998 7.19999 54.2998 8.39999C54.1998 8.69999 54.1998 8.99999 54.1998 9.39999V16.6H51.9998V7.99999H51.8998Z" fill="#060F4F"/>
<path d="M66.8998 11.2C66.8998 14.2 68.7998 15.4 70.9998 15.4C72.5998 15.4 73.4998 15.1 74.2998 14.8L74.6998 16.4C73.8998 16.7 72.5998 17.1 70.6998 17.1C66.9998 17.1 64.7998 14.7 64.7998 11C64.7998 7.3 66.8998 4.5 70.3998 4.5C74.2998 4.5 75.3998 8 75.3998 10.2C75.3998 10.6 75.3998 11 75.2998 11.2H66.8998ZM73.2998 9.6C73.2998 8.2 72.6998 6 70.2998 6C68.0998 6 67.0998 8 66.8998 9.6H73.2998Z" fill="#060F4F"/>
<path d="M80.7998 1.29999V4.79999H83.8998V6.49999H80.7998V13C80.7998 14.5 81.1998 15.3 82.3998 15.3C82.9998 15.3 83.3998 15.2 83.6998 15.2L83.7998 16.8C83.3998 17 82.6998 17.1 81.8998 17.1C80.8998 17.1 80.0998 16.8 79.4998 16.2C78.8998 15.6 78.6998 14.5 78.6998 13.1V6.39999H76.7998V4.69999H78.6998V1.89999L80.7998 1.29999Z" fill="#060F4F"/>
<path d="M86.3998 8.70001C86.3998 7.20001 86.2998 5.90001 86.2998 4.80001H88.2998L88.3998 6.90001H88.4998C89.3998 5.40001 90.7998 4.60001 92.7998 4.60001C95.6998 4.60001 97.8998 7.10001 97.8998 10.7C97.8998 15 95.2998 17.2 92.3998 17.2C90.7998 17.2 89.3998 16.5 88.6998 15.3V21.8H86.4998V8.70001H86.3998ZM88.5998 11.9C88.5998 12.2 88.5998 12.5 88.6998 12.8C89.0998 14.3 90.3998 15.4 91.9998 15.4C94.2998 15.4 95.6998 13.5 95.6998 10.8C95.6998 8.40001 94.3998 6.30001 92.0998 6.30001C90.5998 6.30001 89.1998 7.40001 88.7998 9.00001C88.6998 9.30001 88.6998 9.60001 88.6998 9.90001V11.9H88.5998Z" fill="#060F4F"/>
<path d="M103 1.4C103 2.1 102.5 2.7 101.6 2.7C100.8 2.7 100.3 2.1 100.3 1.4C100.3 0.6 100.9 0 101.7 0C102.4 0 103 0.6 103 1.4ZM100.5 16.8V4.8H102.7V16.8H100.5Z" fill="#060F4F"/>
<path d="M106.3 7.99999C106.3 6.79999 106.3 5.69999 106.2 4.69999H108.1L108.2 6.69999C108.8 5.59999 110.2 4.39999 112.2 4.39999C113.9 4.39999 116.5 5.39999 116.5 9.49999V16.7H114.3V9.79999C114.3 7.89999 113.6 6.19999 111.5 6.19999C110.1 6.19999 108.9 7.19999 108.6 8.39999C108.5 8.69999 108.5 8.99999 108.5 9.39999V16.6H106.3V7.99999Z" fill="#060F4F"/>
<path d="M130.5 4.69999C130.5 5.59999 130.4 6.49999 130.4 7.99999V15C130.4 17.8 129.9 19.4 128.7 20.5C127.5 21.6 125.8 21.9 124.3 21.9C122.9 21.9 121.3 21.6 120.3 20.9L120.8 19.2C121.6 19.7 122.8 20.1 124.3 20.1C126.5 20.1 128.2 18.9 128.2 15.9V14.6C127.5 15.7 126.2 16.6 124.4 16.6C121.4 16.6 119.3 14.1 119.3 10.7C119.3 6.59999 122 4.29999 124.7 4.29999C126.8 4.29999 127.9 5.39999 128.5 6.39999H128.6L128.7 4.59999H130.5V4.69999ZM128.2 9.49999C128.2 9.09999 128.2 8.79999 128.1 8.49999C127.7 7.19999 126.6 6.19999 125 6.19999C122.9 6.19999 121.4 7.99999 121.4 10.7C121.4 13.1 122.6 15 125 15C126.3 15 127.6 14.2 128 12.8C128.1 12.4 128.2 12 128.2 11.6V9.49999Z" fill="#060F4F"/>
<path d="M133.1 15.5C133.1 14.6 133.7 13.9 134.6 13.9C135.5 13.9 136.1 14.5 136.1 15.5C136.1 16.4 135.5 17.1 134.6 17.1C133.7 17.1 133.1 16.4 133.1 15.5Z" fill="#060F4F"/>
<path d="M149.7 10.7C149.7 15.1 146.6 17.1 143.7 17.1C140.4 17.1 137.9 14.7 137.9 10.9C137.9 6.9 140.5 4.5 143.9 4.5C147.4 4.5 149.7 7 149.7 10.7ZM140.1 10.8C140.1 13.4 141.6 15.4 143.8 15.4C145.9 15.4 147.5 13.4 147.5 10.7C147.5 8.7 146.5 6.1 143.9 6.1C141.3 6.1 140.1 8.5 140.1 10.8Z" fill="#060F4F"/>
<path d="M152.4 8.5C152.4 7.1 152.4 5.9 152.3 4.7H154.2L154.3 7.1H154.4C154.9 5.5 156.3 4.5 157.7 4.5C157.9 4.5 158.1 4.5 158.3 4.6V6.7C158.1 6.7 157.9 6.6 157.6 6.6C156.1 6.6 155 7.8 154.7 9.4C154.7 9.7 154.6 10 154.6 10.4V16.8H152.4V8.5Z" fill="#060F4F"/>
<path d="M170.7 4.69999C170.7 5.59999 170.6 6.49999 170.6 7.99999V15C170.6 17.8 170.1 19.4 168.9 20.5C167.7 21.6 166 21.9 164.5 21.9C163.1 21.9 161.5 21.6 160.5 20.9L161 19.2C161.8 19.7 163 20.1 164.5 20.1C166.7 20.1 168.4 18.9 168.4 15.9V14.6C167.7 15.7 166.4 16.6 164.6 16.6C161.6 16.6 159.5 14.1 159.5 10.7C159.5 6.59999 162.2 4.29999 164.9 4.29999C167 4.29999 168.1 5.39999 168.7 6.39999H168.8L168.9 4.59999H170.7V4.69999ZM168.5 9.49999C168.5 9.09999 168.5 8.79999 168.4 8.49999C168 7.19999 166.9 6.19999 165.3 6.19999C163.2 6.19999 161.7 7.99999 161.7 10.7C161.7 13.1 162.9 15 165.3 15C166.6 15 167.9 14.2 168.3 12.8C168.4 12.4 168.5 12 168.5 11.6V9.49999Z" fill="#060F4F"/>
<path d="M20.7999 13.4C17.8999 13.4 15.3999 15.8 15.3999 18.7C15.3999 21.6 17.7999 24 20.7999 24C23.7999 24 26.1999 21.6 26.1999 18.7C26.1999 15.8 23.7999 13.4 20.7999 13.4Z" fill="url(#paint0_linear)"/>
<path d="M6.7999 33C6.3999 33 6.0999 32.9 5.7999 32.6C-1.9001 25 -1.9001 12.5 5.7999 4.90001C6.3999 4.30001 7.1999 4.30001 7.7999 4.90001C8.3999 5.50001 8.3999 6.30001 7.7999 6.80001C1.1999 13.4 1.1999 24.1 7.7999 30.6C8.3999 31.2 8.3999 32 7.7999 32.5C7.4999 32.9 7.0999 33 6.7999 33Z" fill="#060F4F"/>
<path d="M35.2999 33C34.8999 33 34.5999 32.9 34.2999 32.6C33.6999 32 33.6999 31.2 34.2999 30.7C40.8999 24.1 40.8999 13.4 34.2999 6.90002C33.6999 6.30002 33.6999 5.50002 34.2999 5.00002C34.8999 4.40002 35.6999 4.40002 36.2999 5.00002C43.9999 12.6 43.9999 25.1 36.2999 32.7C35.9999 32.9 35.6999 33 35.2999 33Z" fill="#060F4F"/>
<path d="M12.7 27.2C12.3 27.2 12 27.1 11.7 26.8C7.19995 22.3 7.19995 15.1 11.7 10.7C12.3 10.1 13.1 10.1 13.7 10.7C14.3 11.3 14.3 12.1 13.7 12.6C10.3 16 10.3 21.4 13.7 24.8C14.3 25.4 14.3 26.2 13.7 26.7C13.4 27.1 13.1 27.2 12.7 27.2Z" fill="#060F4F"/>
<path d="M29.4 27.2C29 27.2 28.7 27.1 28.4 26.8C27.8 26.2 27.8 25.4 28.4 24.9C31.8 21.5 31.8 16.1 28.4 12.7C27.8 12.1 27.8 11.3 28.4 10.8C29 10.2 29.8 10.2 30.4 10.8C34.9 15.3 34.9 22.5 30.4 26.9C30.1 27.1 29.8 27.2 29.4 27.2Z" fill="#060F4F"/>
<path d="M52.8998 26.6V27.4C53.3998 26.8 53.9998 26.5 54.7998 26.5C56.0998 26.5 56.7998 27.3 56.7998 28.8V33H55.6998V28.8C55.6998 28.3 55.5998 28 55.3998 27.8C55.1998 27.6 54.8998 27.5 54.3998 27.5C53.9998 27.5 53.6998 27.6 53.4998 27.8C53.2998 28 52.9998 28.2 52.8998 28.5V33H51.7998V26.7H52.8998V26.6Z" fill="#0588FF"/>
<path d="M61.0997 33C60.1997 33 59.4997 32.7 58.9997 32.2C58.4997 31.7 58.1997 30.9 58.1997 29.9V29.7C58.1997 29.1 58.2997 28.5 58.5997 28C58.8997 27.5 59.1997 27.1 59.5997 26.8C59.9997 26.5 60.4997 26.4 60.9997 26.4C61.7997 26.4 62.4997 26.7 62.8997 27.2C63.2997 27.7 63.5997 28.5 63.5997 29.5V30H59.2997C59.2997 30.6 59.4997 31.1 59.7997 31.5C60.0997 31.9 60.5997 32.1 61.0997 32.1C61.4997 32.1 61.7997 32 62.0997 31.9C62.3997 31.8 62.5997 31.5 62.7997 31.3L63.4997 31.8C62.9997 32.6 62.1997 33 61.0997 33ZM60.9997 27.3C60.5997 27.3 60.1997 27.5 59.8997 27.8C59.5997 28.1 59.3997 28.6 59.2997 29.1H62.4997V29C62.4997 28.4 62.2997 28 62.0997 27.7C61.8997 27.4 61.3997 27.3 60.9997 27.3Z" fill="#0588FF"/>
<path d="M66.2998 25V26.5H67.4998V27.3H66.2998V31.2C66.2998 31.5 66.3998 31.6 66.4998 31.8C66.5998 32 66.7998 32 66.9998 32C67.0998 32 67.2998 32 67.4998 31.9V32.8C67.1998 33 66.8998 33 66.6998 33C66.1998 33 65.8998 32.9 65.5998 32.6C65.2998 32.3 65.1998 31.9 65.1998 31.4V27.5H63.9998V26.7H65.1998V25H66.2998Z" fill="#0588FF"/>
<path d="M74.3997 31.4L75.5997 26.6H76.6997L74.8997 32.9H73.9997L72.4997 28.1L70.9997 32.9H69.9997L68.1997 26.6H69.2997L70.4997 31.3L71.9997 26.6H72.8997L74.3997 31.4Z" fill="#0588FF"/>
<path d="M77.4998 29.7C77.4998 29.1 77.5998 28.5 77.8998 28C78.1998 27.5 78.4998 27.1 78.8998 26.9C79.2998 26.7 79.7998 26.5 80.3998 26.5C81.2998 26.5 81.9998 26.8 82.4998 27.4C82.9998 28 83.2998 28.8 83.2998 29.8V29.9C83.2998 30.5 83.1998 31.1 82.8998 31.6C82.5998 32.1 82.2998 32.5 81.8998 32.7C81.4998 32.9 80.8998 33 80.3998 33C79.4998 33 78.7998 32.7 78.2998 32.1C77.7998 31.5 77.4998 30.7 77.4998 29.7ZM78.5998 29.8C78.5998 30.5 78.7998 31.1 79.0998 31.5C79.3998 31.9 79.8998 32.1 80.3998 32.1C80.9998 32.1 81.3998 31.9 81.6998 31.5C81.9998 31.1 82.1998 30.5 82.1998 29.7C82.1998 29 81.9998 28.4 81.6998 28C81.3998 27.6 80.8998 27.4 80.3998 27.4C79.8998 27.4 79.3998 27.6 79.0998 28C78.7998 28.4 78.5998 29 78.5998 29.8Z" fill="#0588FF"/>
<path d="M87.6997 27.5C87.4997 27.5 87.3997 27.5 87.1997 27.5C86.4997 27.5 85.9997 27.8 85.7997 28.4V32.9H84.6997V26.6H85.7997V27.3C86.1997 26.7 86.6997 26.5 87.2997 26.5C87.4997 26.5 87.6997 26.5 87.7997 26.6V27.5H87.6997Z" fill="#0588FF"/>
<path d="M90.3999 30L89.6999 30.7V32.9H88.5999V23.9H89.6999V29.3L90.2999 28.6L92.2999 26.5H93.5999L91.0999 29.1L93.8999 32.8H92.5999L90.3999 30Z" fill="#0588FF"/>
<path d="M99.1999 25V26.5H100.4V27.3H99.1999V31.2C99.1999 31.5 99.2999 31.6 99.3999 31.8C99.4999 32 99.6999 32 99.8999 32C99.9999 32 100.2 32 100.4 31.9V32.8C100.1 32.9 99.7999 32.9 99.5999 32.9C99.0999 32.9 98.7999 32.8 98.4999 32.5C98.1999 32.2 98.0999 31.8 98.0999 31.3V27.4H96.8999V26.6H98.0999V25H99.1999Z" fill="#0588FF"/>
<path d="M101.2 29.7C101.2 29.1 101.3 28.5 101.6 28C101.9 27.5 102.2 27.1 102.6 26.9C103 26.7 103.5 26.5 104.1 26.5C105 26.5 105.7 26.8 106.2 27.4C106.7 28 107 28.8 107 29.8V29.9C107 30.5 106.9 31.1 106.6 31.6C106.3 32.1 106 32.5 105.6 32.7C105.2 32.9 104.7 33.1 104.1 33.1C103.2 33.1 102.5 32.8 102 32.2C101.5 31.6 101.2 30.7 101.2 29.7ZM102.3 29.8C102.3 30.5 102.5 31.1 102.8 31.5C103.1 31.9 103.6 32.1 104.1 32.1C104.7 32.1 105.1 31.9 105.4 31.5C105.7 31.1 105.9 30.5 105.9 29.7C105.9 29 105.7 28.4 105.4 28C105.1 27.6 104.6 27.4 104.1 27.4C103.6 27.4 103.1 27.6 102.8 28C102.5 28.4 102.3 29 102.3 29.8Z" fill="#0588FF"/>
<path d="M108.1 29.7C108.1 29.1 108.2 28.5 108.5 28C108.8 27.5 109.1 27.1 109.5 26.9C109.9 26.7 110.4 26.5 111 26.5C111.9 26.5 112.6 26.8 113.1 27.4C113.6 28 113.9 28.8 113.9 29.8V29.9C113.9 30.5 113.8 31.1 113.5 31.6C113.2 32.1 112.9 32.5 112.5 32.7C112.1 32.9 111.5 33 111 33C110.1 33 109.4 32.7 108.9 32.1C108.4 31.5 108.1 30.7 108.1 29.7ZM109.2 29.8C109.2 30.5 109.4 31.1 109.7 31.5C110 31.9 110.5 32.1 111 32.1C111.6 32.1 112 31.9 112.3 31.5C112.6 31.1 112.8 30.5 112.8 29.7C112.8 29 112.6 28.4 112.3 28C112 27.6 111.5 27.4 111 27.4C110.5 27.4 110 27.6 109.7 28C109.4 28.4 109.2 29 109.2 29.8Z" fill="#0588FF"/>
<path d="M116.4 32.9H115.3V23.9H116.4V32.9Z" fill="#0588FF"/>
<path d="M121.8 31.2C121.8 30.9 121.7 30.7 121.5 30.5C121.3 30.3 120.9 30.2 120.3 30.1C119.7 30 119.3 29.8 119 29.7C118.7 29.6 118.4 29.3 118.3 29.1C118.2 28.9 118.1 28.6 118.1 28.3C118.1 27.8 118.3 27.3 118.8 27C119.3 26.7 119.8 26.5 120.5 26.5C121.2 26.5 121.8 26.7 122.2 27.1C122.6 27.5 122.9 27.9 122.9 28.5H121.8C121.8 28.2 121.7 27.9 121.4 27.7C121.1 27.5 120.8 27.4 120.4 27.4C120 27.4 119.7 27.5 119.5 27.7C119.3 27.9 119.2 28.1 119.2 28.4C119.2 28.7 119.3 28.9 119.5 29C119.7 29.1 120.1 29.3 120.6 29.4C121.1 29.5 121.6 29.7 121.9 29.8C122.2 29.9 122.5 30.2 122.6 30.4C122.7 30.6 122.8 30.9 122.8 31.3C122.8 31.9 122.6 32.3 122.1 32.7C121.6 33.1 121.1 33.2 120.3 33.2C119.8 33.2 119.3 33.1 119 32.9C118.7 32.7 118.3 32.5 118.1 32.1C117.9 31.7 117.8 31.4 117.8 31.1H118.9C118.9 31.5 119.1 31.8 119.3 32C119.5 32.2 119.9 32.3 120.4 32.3C120.8 32.3 121.1 32.2 121.4 32.1C121.7 32 121.8 31.5 121.8 31.2Z" fill="#0588FF"/>
</g>
<defs>
<linearGradient id="paint0_linear" x1="13.7772" y1="9.72832" x2="29.0713" y2="29.3239" gradientUnits="userSpaceOnUse">
<stop stop-color="#72FFFF"/>
<stop offset="1" stop-color="#0082FF"/>
</linearGradient>
<clipPath id="clip0">
<rect width="170.7" height="33" fill="white"/>
</clipPath>
</defs>
</svg>
